<svg width="1413" height="935" viewBox="0 0 1413 935" fill="none" xmlns="http://www.w3.org/2000/svg">
<path d="M1030.02 879.585C1183.35 983.092 1403.5 940.516 1411.96 755.713C1417.13 642.812 1390.56 527.58 1334.84 421.265C1279.12 314.95 1196.16 221.183 1094.05 149.116C991.941 77.0488 874.174 29.1433 752.241 10.075C630.309 -8.99336 508.377 1.4268 398.345 40.3185C288.314 79.2103 193.942 145.245 124.44 231.978C54.9385 318.71 12.6811 423.178 1.79224 535.186C-17.2846 731.417 203.187 825.002 390.586 763.744L476.827 735.552C621.29 688.329 779.464 710.446 905.434 795.482L1030.02 879.585Z" fill="url(#paint0_linear_2410_269)"/>
<defs>
<linearGradient id="paint0_linear_2410_269" x1="791.573" y1="1508.45" x2="1078.65" y2="9.80205" gradientUnits="userSpaceOnUse">
<stop stop-color="#56CB95" stop-opacity="0"/>
<stop offset="0.994265" stop-color="#39E394"/>
</linearGradient>
</defs>
</svg>
