<svg width="1295" height="1237" viewBox="0 0 1295 1237" fill="none" xmlns="http://www.w3.org/2000/svg">
<path d="M224.446 684.103C35.4621 737.424 -80.4513 946.292 67.9463 1074.88C158.863 1153.67 273.936 1206.13 400.572 1226.52C527.208 1246.92 660.524 1234.46 785.93 1190.52C911.336 1146.58 1024 1072.84 1111.58 977.381C1199.17 881.921 1258.3 768.417 1282.52 649.292C1306.73 530.168 1295.08 410.014 1248.85 301.982C1202.62 193.95 1123.59 102.205 1020.42 36.7866C840.074 -77.5537 643.146 94.7427 616.336 306.587C595.217 473.465 476.146 613.085 314.257 658.762L224.446 684.103Z" fill="url(#paint0_linear_2410_100)"/>
<defs>
<linearGradient id="paint0_linear_2410_100" x1="45.2792" y1="61.5834" x2="1004.19" y2="1248.54" gradientUnits="userSpaceOnUse">
<stop stop-color="#56CB95" stop-opacity="0"/>
<stop offset="0.994265" stop-color="#39E394"/>
</linearGradient>
</defs>
</svg>
