<svg width="1226" height="1293" viewBox="0 0 1226 1293" fill="none" xmlns="http://www.w3.org/2000/svg">
<path d="M1040.94 508.662C1219.23 426.379 1300.98 201.926 1134.26 98.1807C1032.12 34.6206 910.245 0.844251 781.977 0.548585C653.71 0.252885 523.993 33.4493 407.025 96.5043C290.056 159.559 190.344 250.043 118.802 358.051C47.2599 466.059 6.64577 587.428 1.40475 708.875C-3.83629 830.322 26.4977 947.166 89.0867 1046.62C151.676 1146.07 244.107 1224.29 356.265 1272.73C552.298 1357.39 719.788 1156.36 713.063 942.934C707.766 774.808 803.483 618.251 956.212 547.765L1040.94 508.662Z" fill="url(#paint0_linear_2410_134)"/>
<defs>
<linearGradient id="paint0_linear_2410_134" x1="1315.46" y1="1095.41" x2="182.374" y2="73.4134" gradientUnits="userSpaceOnUse">
<stop stop-color="#56CB95" stop-opacity="0"/>
<stop offset="0.994265" stop-color="#39E394"/>
</linearGradient>
</defs>
</svg>
