<svg width="1882" height="934" viewBox="0 0 1882 934" fill="none" xmlns="http://www.w3.org/2000/svg">
<path d="M1372.07 878.821C1576.45 982.331 1869.88 939.754 1881.16 754.945C1888.05 642.04 1852.63 526.804 1778.36 420.486C1704.1 314.167 1593.52 220.397 1457.42 148.328C1321.32 76.2586 1164.34 28.3516 1001.82 9.28268C839.294 -9.78628 676.77 0.634217 530.109 39.5272C383.448 78.4201 257.66 144.457 165.02 231.192C72.3813 317.928 16.0563 422.399 1.54247 534.41C-23.885 730.648 269.983 824.236 519.766 762.975L634.717 734.783C827.273 687.558 1038.1 709.675 1206.01 794.715L1372.07 878.821Z" fill="url(#paint0_linear_2410_271)"/>
<defs>
<linearGradient id="paint0_linear_2410_271" x1="870.178" y1="1406.21" x2="1088.96" y2="-116.034" gradientUnits="userSpaceOnUse">
<stop stop-color="#56CB95" stop-opacity="0"/>
<stop offset="0.994265" stop-color="#39E394"/>
</linearGradient>
</defs>
</svg>
