<svg width="1666" height="1246" viewBox="0 0 1666 1246" fill="none" xmlns="http://www.w3.org/2000/svg">
<path d="M803.47 1040.78C882.415 1233.46 1115.41 1314.99 1269.69 1175.16C1307.83 1140.59 1344 1104.6 1377.87 1067.45C1496.41 937.423 1582.75 797.589 1628.44 661.597C1674.14 525.605 1677.65 398.1 1638.61 291.527C1599.58 184.954 1519.34 102.954 1405.73 53.5288C1292.12 4.10362 1149.01 -11.0576 990.384 9.52473C831.755 30.1071 663.02 85.7298 500.647 170.964C338.274 256.199 187.81 368.134 63.9391 495.844C-91.0934 655.682 58.5511 870.423 279.88 845.995L444.889 827.782C598.552 810.822 744.856 897.728 803.47 1040.78Z" fill="url(#paint0_linear_2410_158)"/>
<defs>
<linearGradient id="paint0_linear_2410_158" x1="-98.8089" y1="1654.53" x2="929.756" y2="-412.125" gradientUnits="userSpaceOnUse">
<stop stop-color="#56CB95" stop-opacity="0"/>
<stop offset="0.994265" stop-color="#39E394"/>
</linearGradient>
</defs>
</svg>
