<svg width="1396" height="984" viewBox="0 0 1396 984" fill="none" xmlns="http://www.w3.org/2000/svg">
<path d="M396.287 71.6244C252.189 -44.3905 29.2466 -20.4488 5.29814 162.991C-9.33271 275.06 7.46926 392.116 54.0642 502.734C100.659 613.352 175.455 713.753 271.153 794.139C366.85 874.524 480.18 932.149 600.081 961.387C719.982 990.626 842.358 990.48 955.267 960.964C1068.17 931.448 1167.76 873.57 1244.3 792.979C1320.83 712.387 1371.71 611.836 1391.97 501.139C1427.45 307.202 1215.62 195.437 1023.74 240.745L935.434 261.595C787.516 296.523 631.758 261.204 513.372 165.891L396.287 71.6244Z" fill="url(#paint0_linear_2410_157)"/>
<defs>
<linearGradient id="paint0_linear_2410_157" x1="815.778" y1="-422.275" x2="403.882" y2="1046.98" gradientUnits="userSpaceOnUse">
<stop stop-color="#56CB95" stop-opacity="0"/>
<stop offset="0.994265" stop-color="#39E394"/>
</linearGradient>
</defs>
</svg>
