<svg width="98" height="24" viewBox="0 0 98 24" fill="none" xmlns="http://www.w3.org/2000/svg">
<g filter="url(#filter0_b_2410_98)">
<path d="M6.84 19.176C5.496 19.176 4.208 19 2.976 18.648C1.744 18.28 0.752 17.808 0 17.232L1.32 14.304C2.04 14.816 2.888 15.24 3.864 15.576C4.856 15.896 5.856 16.056 6.864 16.056C7.632 16.056 8.248 15.984 8.712 15.84C9.192 15.68 9.544 15.464 9.768 15.192C9.992 14.92 10.104 14.608 10.104 14.256C10.104 13.808 9.928 13.456 9.576 13.2C9.224 12.928 8.76 12.712 8.184 12.552C7.608 12.376 6.968 12.216 6.264 12.072C5.576 11.912 4.88 11.72 4.176 11.496C3.488 11.272 2.856 10.984 2.28 10.632C1.704 10.28 1.232 9.816 0.864 9.24C0.512 8.664 0.336 7.928 0.336 7.032C0.336 6.072 0.592 5.2 1.104 4.416C1.632 3.616 2.416 2.984 3.456 2.52C4.512 2.04 5.832 1.8 7.416 1.8C8.472 1.8 9.512 1.928 10.536 2.184C11.56 2.424 12.464 2.792 13.248 3.288L12.048 6.24C11.264 5.792 10.48 5.464 9.696 5.256C8.912 5.032 8.144 4.92 7.392 4.92C6.64 4.92 6.024 5.008 5.544 5.184C5.064 5.36 4.72 5.592 4.512 5.88C4.304 6.152 4.2 6.472 4.2 6.84C4.2 7.272 4.376 7.624 4.728 7.896C5.08 8.152 5.544 8.36 6.12 8.52C6.696 8.68 7.328 8.84 8.016 9C8.72 9.16 9.416 9.344 10.104 9.552C10.808 9.76 11.448 10.04 12.024 10.392C12.6 10.744 13.064 11.208 13.416 11.784C13.784 12.36 13.968 13.088 13.968 13.968C13.968 14.912 13.704 15.776 13.176 16.56C12.648 17.344 11.856 17.976 10.8 18.456C9.76 18.936 8.44 19.176 6.84 19.176Z" fill="#25B7C8"/>
<path d="M16.4607 18.888V5.976H20.2047V18.888H16.4607ZM18.3327 4.176C17.6447 4.176 17.0847 3.976 16.6527 3.576C16.2207 3.176 16.0047 2.68 16.0047 2.088C16.0047 1.496 16.2207 1 16.6527 0.600001C17.0847 0.2 17.6447 0 18.3327 0C19.0207 0 19.5807 0.192 20.0127 0.576001C20.4447 0.944001 20.6607 1.424 20.6607 2.016C20.6607 2.64 20.4447 3.16 20.0127 3.576C19.5967 3.976 19.0367 4.176 18.3327 4.176Z" fill="#25B7C8"/>
<path d="M29.8514 23.736C28.6354 23.736 27.4594 23.584 26.3234 23.28C25.2034 22.992 24.2674 22.552 23.5154 21.96L25.0034 19.272C25.5474 19.72 26.2354 20.072 27.0674 20.328C27.9154 20.6 28.7474 20.736 29.5634 20.736C30.8914 20.736 31.8514 20.44 32.4434 19.848C33.0514 19.256 33.3554 18.376 33.3554 17.208V15.264L33.5954 12.024L33.5474 8.76V5.976H37.0994V16.728C37.0994 19.128 36.4754 20.896 35.2274 22.032C33.9794 23.168 32.1874 23.736 29.8514 23.736ZM29.2754 18.264C28.0754 18.264 26.9874 18.008 26.0114 17.496C25.0514 16.968 24.2754 16.24 23.6834 15.312C23.1074 14.368 22.8194 13.272 22.8194 12.024C22.8194 10.76 23.1074 9.664 23.6834 8.736C24.2754 7.792 25.0514 7.064 26.0114 6.552C26.9874 6.04 28.0754 5.784 29.2754 5.784C30.3634 5.784 31.3234 6.008 32.1554 6.456C32.9874 6.888 33.6354 7.568 34.0994 8.496C34.5634 9.408 34.7954 10.584 34.7954 12.024C34.7954 13.448 34.5634 14.624 34.0994 15.552C33.6354 16.464 32.9874 17.144 32.1554 17.592C31.3234 18.04 30.3634 18.264 29.2754 18.264ZM30.0194 15.192C30.6754 15.192 31.2594 15.064 31.7714 14.808C32.2834 14.536 32.6834 14.16 32.9714 13.68C33.2594 13.2 33.4034 12.648 33.4034 12.024C33.4034 11.384 33.2594 10.832 32.9714 10.368C32.6834 9.888 32.2834 9.52 31.7714 9.264C31.2594 8.992 30.6754 8.856 30.0194 8.856C29.3634 8.856 28.7794 8.992 28.2674 9.264C27.7554 9.52 27.3474 9.888 27.0434 10.368C26.7554 10.832 26.6114 11.384 26.6114 12.024C26.6114 12.648 26.7554 13.2 27.0434 13.68C27.3474 14.16 27.7554 14.536 28.2674 14.808C28.7794 15.064 29.3634 15.192 30.0194 15.192Z" fill="#25B7C8"/>
<path d="M48.5321 5.784C49.5561 5.784 50.4681 5.992 51.2681 6.408C52.0841 6.808 52.7241 7.432 53.1881 8.28C53.6521 9.112 53.8841 10.184 53.8841 11.496V18.888H50.1401V12.072C50.1401 11.032 49.9081 10.264 49.4441 9.768C48.9961 9.272 48.3561 9.024 47.5241 9.024C46.9321 9.024 46.3961 9.152 45.9161 9.408C45.4521 9.648 45.0841 10.024 44.8121 10.536C44.5561 11.048 44.4281 11.704 44.4281 12.504V18.888H40.6841V5.976H44.2601V9.552L43.5881 8.472C44.0521 7.608 44.7161 6.944 45.5801 6.48C46.4441 6.016 47.4281 5.784 48.5321 5.784Z" fill="#25B7C8"/>
<path d="M72.0028 19.176C69.6188 19.176 67.7548 18.512 66.4108 17.184C65.0668 15.856 64.3948 13.96 64.3948 11.496V2.088H68.2828V11.352C68.2828 12.952 68.6107 14.104 69.2667 14.808C69.9227 15.512 70.8427 15.864 72.0267 15.864C73.2107 15.864 74.1308 15.512 74.7868 14.808C75.4427 14.104 75.7708 12.952 75.7708 11.352V2.088H79.6107V11.496C79.6107 13.96 78.9387 15.856 77.5947 17.184C76.2507 18.512 74.3868 19.176 72.0028 19.176Z" fill="#25B7C8"/>
<path d="M90.9208 19.08C89.8328 19.08 88.8808 18.84 88.0648 18.36C87.2488 17.88 86.6088 17.152 86.1448 16.176C85.6968 15.184 85.4728 13.936 85.4728 12.432C85.4728 10.912 85.6888 9.664 86.1208 8.688C86.5528 7.712 87.1768 6.984 87.9928 6.504C88.8088 6.024 89.7848 5.784 90.9208 5.784C92.1368 5.784 93.2248 6.064 94.1848 6.624C95.1608 7.168 95.9288 7.936 96.4888 8.928C97.0648 9.92 97.3528 11.088 97.3528 12.432C97.3528 13.792 97.0648 14.968 96.4888 15.96C95.9288 16.952 95.1608 17.72 94.1848 18.264C93.2248 18.808 92.1368 19.08 90.9208 19.08ZM83.2888 23.544V5.976H86.8648V8.616L86.7928 12.456L87.0328 16.272V23.544H83.2888ZM90.2728 16.008C90.8968 16.008 91.4488 15.864 91.9288 15.576C92.4248 15.288 92.8168 14.88 93.1048 14.352C93.4088 13.808 93.5608 13.168 93.5608 12.432C93.5608 11.68 93.4088 11.04 93.1048 10.512C92.8168 9.984 92.4248 9.576 91.9288 9.288C91.4488 9 90.8968 8.856 90.2728 8.856C89.6488 8.856 89.0888 9 88.5928 9.288C88.0968 9.576 87.7048 9.984 87.4168 10.512C87.1288 11.04 86.9848 11.68 86.9848 12.432C86.9848 13.168 87.1288 13.808 87.4168 14.352C87.7048 14.88 88.0968 15.288 88.5928 15.576C89.0888 15.864 89.6488 16.008 90.2728 16.008Z" fill="#25B7C8"/>
</g>
<defs>
<filter id="filter0_b_2410_98" x="-4" y="-4" width="105.353" height="31.7361" filterUnits="userSpaceOnUse" color-interpolation-filters="sRGB">
<feFlood flood-opacity="0" result="BackgroundImageFix"/>
<feGaussianBlur in="BackgroundImageFix" stdDeviation="2"/>
<feComposite in2="SourceAlpha" operator="in" result="effect1_backgroundBlur_2410_98"/>
<feBlend mode="normal" in="SourceGraphic" in2="effect1_backgroundBlur_2410_98" result="shape"/>
</filter>
</defs>
</svg>
