<svg width="54" height="443" viewBox="0 0 54 443" fill="none" xmlns="http://www.w3.org/2000/svg">
<path d="M16.2989 342.73C15.7353 341.732 15.2971 340.665 14.9949 339.554C15.6526 339.211 16.205 338.689 16.5909 338.045C16.9769 337.401 17.1813 336.66 17.1815 335.904C17.1818 335.148 16.9779 334.407 16.5925 333.763C16.2071 333.118 15.6551 332.596 14.9976 332.253C15.6003 330.021 16.7479 327.983 18.3322 326.33C18.951 326.742 19.6691 326.971 20.4069 326.991C21.1447 327.011 21.8735 326.821 22.5127 326.443C23.1518 326.065 23.6764 325.514 24.0284 324.849C24.3804 324.185 24.546 323.434 24.5069 322.679C26.6964 322.099 28.9939 322.1 31.1829 322.682C31.1442 323.437 31.3101 324.188 31.6623 324.852C32.0146 325.516 32.5394 326.067 33.1787 326.445C33.818 326.823 34.5468 327.012 35.2846 326.992C36.0224 326.971 36.7403 326.743 37.3589 326.33C38.1309 327.136 38.8162 328.052 39.3922 329.075C39.9696 330.098 40.4016 331.164 40.6962 332.251C40.0385 332.594 39.4861 333.116 39.1002 333.76C38.7143 334.404 38.5099 335.145 38.5096 335.901C38.5093 336.657 38.7132 337.398 39.0986 338.042C39.4841 338.687 40.0361 339.209 40.6936 339.553C40.0909 341.785 38.9433 343.823 37.3589 345.475C36.7401 345.063 36.0221 344.834 35.2843 344.814C34.5465 344.794 33.8176 344.984 33.1785 345.362C32.5393 345.74 32.0147 346.291 31.6627 346.956C31.3108 347.62 31.1452 348.371 31.1842 349.126C28.9948 349.706 26.6973 349.705 24.5082 349.123C24.547 348.369 24.381 347.618 24.0288 346.953C23.6766 346.289 23.1518 345.738 22.5125 345.36C21.8732 344.982 21.1443 344.793 20.4065 344.813C19.6688 344.834 18.9509 345.063 18.3322 345.475C17.5442 344.651 16.861 343.729 16.2989 342.73V342.73ZM23.8456 342.998C25.2664 343.837 26.3347 345.184 26.8456 346.78C27.5109 346.844 28.1789 346.846 28.8442 346.782C29.3554 345.185 30.4242 343.838 31.8456 342.999C33.2659 342.158 34.9396 341.883 36.5456 342.228C36.9322 341.671 37.2656 341.077 37.5429 340.455C36.4488 339.204 35.8444 337.582 35.8456 335.903C35.8456 334.182 36.4722 332.575 37.5429 331.35C37.2636 330.729 36.9289 330.136 36.5429 329.578C34.9379 329.922 33.2653 329.648 31.8456 328.807C30.4247 327.968 29.3564 326.621 28.8456 325.025C28.1802 324.961 27.5122 324.959 26.8469 325.024C26.3357 326.62 25.2669 327.967 23.8456 328.806C22.4253 329.648 20.7515 329.922 19.1456 329.578C18.7597 330.135 18.4257 330.728 18.1482 331.35C19.2423 332.602 19.8467 334.223 19.8456 335.903C19.8456 337.623 19.2189 339.23 18.1482 340.455C18.4275 341.076 18.7623 341.67 19.1482 342.228C20.7532 341.883 22.4258 342.157 23.8456 342.998ZM27.8456 339.999C26.7847 339.999 25.7673 339.568 25.0171 338.799C24.267 338.031 23.8456 336.989 23.8456 335.903C23.8456 334.816 24.267 333.774 25.0171 333.006C25.7673 332.238 26.7847 331.806 27.8456 331.806C28.9064 331.806 29.9239 332.238 30.674 333.006C31.4241 333.774 31.8456 334.816 31.8456 335.903C31.8456 336.989 31.4241 338.031 30.674 338.799C29.9239 339.568 28.9064 339.999 27.8456 339.999ZM27.8456 337.268C28.1992 337.268 28.5383 337.124 28.7884 336.868C29.0384 336.612 29.1789 336.265 29.1789 335.903C29.1789 335.54 29.0384 335.193 28.7884 334.937C28.5383 334.681 28.1992 334.537 27.8456 334.537C27.4919 334.537 27.1528 334.681 26.9028 334.937C26.6527 335.193 26.5122 335.54 26.5122 335.903C26.5122 336.265 26.6527 336.612 26.9028 336.868C27.1528 337.124 27.4919 337.268 27.8456 337.268V337.268Z" fill="white"/>
<g clip-path="url(#clip0_2357_1059)">
<path d="M16.8455 434.731H19.3455V437.292H34.3455V416.809H19.3455V419.369H16.8455V415.529C16.8455 415.189 16.9772 414.864 17.2116 414.623C17.446 414.383 17.764 414.249 18.0955 414.249H35.5955C35.927 414.249 36.245 414.383 36.4794 414.623C36.7138 414.864 36.8455 415.189 36.8455 415.529V438.572C36.8455 438.911 36.7138 439.237 36.4794 439.477C36.245 439.717 35.927 439.852 35.5955 439.852H18.0955C17.764 439.852 17.446 439.717 17.2116 439.477C16.9772 439.237 16.8455 438.911 16.8455 438.572V434.731ZM19.3455 425.77H28.0955V428.33H19.3455V432.171L13.0955 427.05L19.3455 421.93V425.77Z" fill="white"/>
</g>
<defs>
<clipPath id="clip0_2357_1059">
<rect width="30" height="30.724" fill="white" transform="translate(11.8453 411.688)"/>
</clipPath>
</defs>
</svg>
