<svg width="181" height="124" viewBox="0 0 181 124" fill="none" xmlns="http://www.w3.org/2000/svg">
<path d="M-0.000183105 18.8258C-0.000183105 8.87429 8.0671 0.807007 18.0186 0.807007H162.622C172.573 0.807007 180.64 8.87429 180.64 18.8258V105.788C180.64 115.74 172.573 123.807 162.622 123.807H18.0186C8.06708 123.807 -0.000183105 115.74 -0.000183105 105.788V18.8258Z" fill="white" fill-opacity="0.55"/>
<path d="M123.566 55.807H121.512L115.331 46.4553V55.807H113.277V43.2659H115.331L121.512 52.5997V43.2659H123.566V55.807Z" fill="black"/>
<path d="M135.543 50.5996C135.543 50.972 135.519 51.3083 135.471 51.6086H127.885C127.945 52.4015 128.239 53.0381 128.768 53.5186C129.296 53.9991 129.945 54.2394 130.714 54.2394C131.819 54.2394 132.6 53.7769 133.056 52.8519H135.273C134.972 53.7649 134.426 54.5157 133.633 55.1043C132.852 55.6809 131.879 55.9692 130.714 55.9692C129.765 55.9692 128.912 55.759 128.155 55.3385C127.41 54.9061 126.822 54.3054 126.389 53.5366C125.969 52.7558 125.759 51.8549 125.759 50.8338C125.759 49.8128 125.963 48.9178 126.371 48.149C126.792 47.3682 127.374 46.7676 128.119 46.3471C128.876 45.9267 129.741 45.7165 130.714 45.7165C131.651 45.7165 132.486 45.9207 133.218 46.3291C133.951 46.7376 134.522 47.3142 134.93 48.0589C135.339 48.7917 135.543 49.6386 135.543 50.5996ZM133.399 49.9509C133.387 49.1941 133.116 48.5875 132.588 48.131C132.059 47.6745 131.405 47.4463 130.624 47.4463C129.915 47.4463 129.308 47.6745 128.804 48.131C128.299 48.5755 127.999 49.1821 127.903 49.9509H133.399Z" fill="black"/>
<path d="M151.078 45.8787L147.997 55.807H145.835L143.835 48.4734L141.835 55.807H139.673L136.573 45.8787H138.663L140.736 53.861L142.844 45.8787H144.988L147.006 53.8249L149.06 45.8787H151.078Z" fill="black"/>
<path d="M104.394 74.0138C104.394 74.6505 104.244 75.2511 103.944 75.8157C103.643 76.3803 103.163 76.8428 102.502 77.2032C101.841 77.5515 100.994 77.7257 99.9614 77.7257H97.691V82.807H95.6369V70.284H99.9614C100.922 70.284 101.733 70.4521 102.394 70.7885C103.067 71.1128 103.565 71.5573 103.889 72.1219C104.226 72.6865 104.394 73.3171 104.394 74.0138ZM99.9614 76.05C100.742 76.05 101.325 75.8758 101.709 75.5274C102.094 75.167 102.286 74.6625 102.286 74.0138C102.286 72.6444 101.511 71.9597 99.9614 71.9597H97.691V76.05H99.9614Z" fill="black"/>
<path d="M105.849 77.7978C105.849 76.8007 106.053 75.9178 106.461 75.149C106.882 74.3802 107.446 73.7856 108.155 73.3652C108.876 72.9327 109.669 72.7165 110.533 72.7165C111.314 72.7165 111.993 72.8726 112.57 73.185C113.158 73.4853 113.627 73.8637 113.975 74.3202V72.8787H116.047V82.807H113.975V81.3295C113.627 81.798 113.152 82.1884 112.552 82.5007C111.951 82.813 111.266 82.9692 110.497 82.9692C109.645 82.9692 108.864 82.753 108.155 82.3205C107.446 81.876 106.882 81.2634 106.461 80.4826C106.053 79.6898 105.849 78.7948 105.849 77.7978ZM113.975 77.8338C113.975 77.1491 113.831 76.5545 113.543 76.05C113.266 75.5454 112.9 75.161 112.443 74.8968C111.987 74.6325 111.494 74.5003 110.966 74.5003C110.437 74.5003 109.945 74.6325 109.488 74.8968C109.032 75.149 108.66 75.5274 108.371 76.0319C108.095 76.5245 107.957 77.1131 107.957 77.7978C107.957 78.4825 108.095 79.0831 108.371 79.5997C108.66 80.1162 109.032 80.5126 109.488 80.7889C109.957 81.0532 110.449 81.1853 110.966 81.1853C111.494 81.1853 111.987 81.0532 112.443 80.7889C112.9 80.5246 113.266 80.1402 113.543 79.6357C113.831 79.1192 113.975 78.5185 113.975 77.8338Z" fill="black"/>
<path d="M121.322 74.5544V80.0501C121.322 80.4225 121.406 80.6928 121.574 80.861C121.754 81.0171 122.055 81.0952 122.475 81.0952H123.736V82.807H122.115C121.19 82.807 120.481 82.5908 119.989 82.1583C119.496 81.7259 119.25 81.0231 119.25 80.0501V74.5544H118.079V72.8787H119.25V70.4101H121.322V72.8787H123.736V74.5544H121.322Z" fill="black"/>
<path d="M126.855 71.5633C126.483 71.5633 126.17 71.4372 125.918 71.1849C125.666 70.9326 125.54 70.6203 125.54 70.2479C125.54 69.8755 125.666 69.5632 125.918 69.3109C126.17 69.0587 126.483 68.9325 126.855 68.9325C127.215 68.9325 127.522 69.0587 127.774 69.3109C128.026 69.5632 128.152 69.8755 128.152 70.2479C128.152 70.6203 128.026 70.9326 127.774 71.1849C127.522 71.4372 127.215 71.5633 126.855 71.5633ZM127.864 72.8787V82.807H125.81V72.8787H127.864Z" fill="black"/>
<path d="M139.841 77.5996C139.841 77.972 139.817 78.3083 139.769 78.6086H132.183C132.243 79.4015 132.537 80.0381 133.066 80.5186C133.594 80.9991 134.243 81.2394 135.012 81.2394C136.117 81.2394 136.898 80.7769 137.354 79.8519H139.57C139.27 80.7649 138.723 81.5157 137.931 82.1043C137.15 82.6809 136.177 82.9692 135.012 82.9692C134.063 82.9692 133.21 82.759 132.453 82.3385C131.708 81.9061 131.12 81.3054 130.687 80.5366C130.267 79.7558 130.056 78.8549 130.056 77.8338C130.056 76.8128 130.261 75.9178 130.669 75.149C131.09 74.3682 131.672 73.7676 132.417 73.3471C133.174 72.9267 134.039 72.7165 135.012 72.7165C135.949 72.7165 136.783 72.9207 137.516 73.3291C138.249 73.7376 138.82 74.3142 139.228 75.0589C139.636 75.7917 139.841 76.6386 139.841 77.5996ZM137.696 76.9509C137.684 76.1941 137.414 75.5875 136.886 75.131C136.357 74.6745 135.702 74.4463 134.921 74.4463C134.213 74.4463 133.606 74.6745 133.102 75.131C132.597 75.5755 132.297 76.1821 132.201 76.9509H137.696Z" fill="black"/>
<path d="M147.052 72.7165C147.832 72.7165 148.529 72.8787 149.142 73.203C149.766 73.5273 150.253 74.0078 150.601 74.6445C150.95 75.2812 151.124 76.05 151.124 76.9509V82.807H149.088V77.2572C149.088 76.3683 148.865 75.6896 148.421 75.2211C147.976 74.7406 147.37 74.5003 146.601 74.5003C145.832 74.5003 145.22 74.7406 144.763 75.2211C144.319 75.6896 144.096 76.3683 144.096 77.2572V82.807H142.042V72.8787H144.096V74.0138C144.433 73.6054 144.859 73.2871 145.376 73.0588C145.904 72.8306 146.463 72.7165 147.052 72.7165Z" fill="black"/>
<path d="M156.321 74.5544V80.0501C156.321 80.4225 156.405 80.6928 156.573 80.861C156.753 81.0171 157.053 81.0952 157.474 81.0952H158.735V82.807H157.113C156.189 82.807 155.48 82.5908 154.987 82.1583C154.495 81.7259 154.248 81.0231 154.248 80.0501V74.5544H153.077V72.8787H154.248V70.4101H156.321V72.8787H158.735V74.5544H156.321Z" fill="black"/>
<path d="M164.412 82.9692C163.632 82.9692 162.929 82.831 162.304 82.5547C161.691 82.2664 161.205 81.882 160.845 81.4015C160.484 80.909 160.292 80.3625 160.268 79.7618H162.394C162.43 80.1823 162.628 80.5366 162.989 80.8249C163.361 81.1012 163.824 81.2394 164.376 81.2394C164.953 81.2394 165.397 81.1313 165.71 80.915C166.034 80.6868 166.196 80.3985 166.196 80.0501C166.196 79.6777 166.016 79.4015 165.656 79.2213C165.307 79.0411 164.749 78.8429 163.98 78.6266C163.235 78.4224 162.628 78.2242 162.16 78.032C161.692 77.8398 161.283 77.5455 160.935 77.1491C160.598 76.7527 160.43 76.2302 160.43 75.5815C160.43 75.0529 160.586 74.5724 160.899 74.14C161.211 73.6955 161.655 73.3471 162.232 73.0949C162.821 72.8426 163.493 72.7165 164.25 72.7165C165.379 72.7165 166.286 73.0048 166.971 73.5814C167.668 74.146 168.04 74.9208 168.088 75.9058H166.034C165.998 75.4614 165.818 75.107 165.493 74.8427C165.169 74.5784 164.731 74.4463 164.178 74.4463C163.638 74.4463 163.223 74.5484 162.935 74.7526C162.646 74.9568 162.502 75.2271 162.502 75.5635C162.502 75.8277 162.598 76.05 162.791 76.2301C162.983 76.4103 163.217 76.5545 163.493 76.6626C163.77 76.7587 164.178 76.8848 164.719 77.041C165.439 77.2332 166.028 77.4314 166.484 77.6356C166.953 77.8278 167.355 78.1161 167.692 78.5005C168.028 78.8849 168.202 79.3954 168.214 80.0321C168.214 80.5967 168.058 81.1012 167.746 81.5457C167.433 81.9902 166.989 82.3385 166.412 82.5908C165.848 82.843 165.181 82.9692 164.412 82.9692Z" fill="black"/>
<path d="M24.298 73.3293V70.2301L36.4066 52.86H41.3798V69.7616H44.7313V73.3293H41.3798V78.807H37.3436V73.3293H24.298ZM37.5238 57.0403L29.0189 69.7616H37.5238V57.0403Z" fill="black"/>
<path d="M48.1355 65.329C48.1355 61.1726 48.8322 57.9292 50.2256 55.5988C51.6431 53.2444 54.0697 52.0671 57.5052 52.0671C60.9408 52.0671 63.3553 53.2444 64.7488 55.5988C66.1663 57.9292 66.875 61.1726 66.875 65.329C66.875 69.5333 66.1663 72.8248 64.7488 75.2032C63.3553 77.5577 60.9408 78.7349 57.5052 78.7349C54.0697 78.7349 51.6431 77.5577 50.2256 75.2032C48.8322 72.8248 48.1355 69.5333 48.1355 65.329ZM62.8388 65.329C62.8388 63.3829 62.7067 61.7372 62.4424 60.3918C62.2021 59.0464 61.6976 57.9533 60.9288 57.1124C60.16 56.2475 59.0188 55.815 57.5052 55.815C55.9917 55.815 54.8505 56.2475 54.0817 57.1124C53.3129 57.9533 52.7963 59.0464 52.532 60.3918C52.2918 61.7372 52.1717 63.3829 52.1717 65.329C52.1717 67.3471 52.2918 69.0408 52.532 70.4103C52.7723 71.7797 53.2768 72.8848 54.0456 73.7257C54.8385 74.5666 55.9917 74.987 57.5052 74.987C59.0188 74.987 60.16 74.5666 60.9288 73.7257C61.7216 72.8848 62.2382 71.7797 62.4784 70.4103C62.7187 69.0408 62.8388 67.3471 62.8388 65.329Z" fill="black"/>
</svg>
